<svg width="98" height="260" viewBox="0 0 98 260" fill="none" xmlns="http://www.w3.org/2000/svg">
<line y1="-1" x2="340" y2="-1" transform="matrix(0.707107 0.707107 -0.996827 0.0795964 6.72705 -45)" stroke="rgba(255, 255, 255, 0.5)" stroke-width="2"/>
<line y1="-1" x2="340" y2="-1" transform="matrix(0.707107 0.707107 -0.996827 0.0795964 26.1282 -95)" stroke="rgba(255, 255, 255, 0.5)" stroke-width="2"/>
<line y1="-1" x2="375" y2="-1" transform="matrix(0.707107 0.707107 -0.996827 0.0795964 -59.8707 29.5604)" stroke="rgba(255, 255, 255, 0.5)" stroke-width="2"/>
<line y1="-1" x2="340" y2="-1" transform="matrix(0.707107 0.707107 -0.996827 0.0795964 -26.527 -6.99533)" stroke="rgba(255, 255, 255, 0.5)" stroke-width="2"/>
<line y1="-1" x2="375" y2="-1" transform="matrix(0.707107 0.707107 -0.996827 0.0795964 -93.5431 68.0431)" stroke="rgba(255, 255, 255, 0.5)" stroke-width="2"/>
<line y1="-1" x2="340" y2="-1" transform="matrix(0.707107 0.707107 -0.996827 0.0795964 -9.89978 -25.9977)" stroke="rgba(255, 255, 255, 0.5)" stroke-width="2"/>
<line y1="-1" x2="340" y2="-1" transform="matrix(0.707107 0.707107 -0.996827 0.0795964 9.50134 -75.9977)" stroke="rgba(255, 255, 255, 0.5)" stroke-width="2"/>
<line y1="-1" x2="375" y2="-1" transform="matrix(0.707107 0.707107 -0.996827 0.0795964 -76.7069 48.8017)" stroke="rgba(255, 255, 255, 0.5)" stroke-width="2"/>
<line y1="-1" x2="372" y2="-1" transform="matrix(0.707107 0.707107 -0.996827 0.0795964 -43.1539 12.007)" stroke="rgba(255, 255, 255, 0.5)" stroke-width="2"/>
<line y1="-1" x2="375" y2="-1" transform="matrix(0.707107 0.707107 -0.996827 0.0795964 -110.379 87.2845)" stroke="rgba(255, 255, 255, 0.5)" stroke-width="2"/>
<line y1="-1" x2="375" y2="-1" transform="matrix(0.707107 0.707107 -0.996827 0.0795964 -138.379 117.026)" stroke="rgba(255, 255, 255, 0.5)" stroke-width="2"/>
<line y1="-1" x2="340" y2="-1" transform="matrix(0.707107 0.707107 -0.996827 0.0795964 -2.77393 -30.7482)" stroke="rgba(255, 255, 255, 0.5)" stroke-width="2"/>
<line y1="-1" x2="340" y2="-1" transform="matrix(0.707107 0.707107 -0.996827 0.0795964 16.6272 -80.7482)" stroke="rgba(255, 255, 255, 0.5)" stroke-width="2"/>
<line y1="-1" x2="375" y2="-1" transform="matrix(0.707107 0.707107 -0.996827 0.0795964 -69.4915 43.9914)" stroke="rgba(255, 255, 255, 0.5)" stroke-width="2"/>
<line y1="-1" x2="372" y2="-1" transform="matrix(0.707107 0.707107 -0.996827 0.0795964 -36.0281 7.25638)" stroke="rgba(255, 255, 255, 0.5)" stroke-width="2"/>
<line y1="-1" x2="375" y2="-1" transform="matrix(0.707107 0.707107 -0.996827 0.0795964 -103.164 82.4741)" stroke="rgba(255, 255, 255, 0.5)" stroke-width="2"/>
<line y1="-1" x2="375" y2="-1" transform="matrix(0.707107 0.707107 -0.996827 0.0795964 -131.164 112.216)" stroke="rgba(255, 255, 255, 0.5)" stroke-width="2"/>
<line y1="-1" x2="340" y2="-1" transform="matrix(0.707107 0.707107 -0.996827 0.0795964 -19.4011 -11.7459)" stroke="rgba(255, 255, 255, 0.5)" stroke-width="2"/>
<line y1="-1" x2="340" y2="-1" transform="matrix(0.707107 0.707107 -0.996827 0.0795964 0 -61.7459)" stroke="rgba(255, 255, 255, 0.5)" stroke-width="2"/>
<line y1="-1" x2="375" y2="-1" transform="matrix(0.707107 0.707107 -0.996827 0.0795964 -86.3276 63.2328)" stroke="rgba(255, 255, 255, 0.5)" stroke-width="2"/>
<line y1="-1" x2="372" y2="-1" transform="matrix(0.707107 0.707107 -0.996827 0.0795964 -52.6552 26.2587)" stroke="rgba(255, 255, 255, 0.5)" stroke-width="2"/>
<line y1="-1" x2="375" y2="-1" transform="matrix(0.707107 0.707107 -0.996827 0.0795964 -120 101.715)" stroke="rgba(255, 255, 255, 0.5)" stroke-width="2"/>
<line y1="-1" x2="375" y2="-1" transform="matrix(0.707107 0.707107 -0.996827 0.0795964 -148 131.457)" stroke="rgba(255, 255, 255, 0.5)" stroke-width="2"/>
<line y1="-1" x2="340" y2="-1" transform="matrix(0.707107 0.707107 -0.996827 0.0795964 1.97656 -37.8741)" stroke="rgba(255, 255, 255, 0.5)" stroke-width="2"/>
<line y1="-1" x2="340" y2="-1" transform="matrix(0.707107 0.707107 -0.996827 0.0795964 21.3777 -87.8741)" stroke="rgba(255, 255, 255, 0.5)" stroke-width="2"/>
<line y1="-1" x2="375" y2="-1" transform="matrix(0.707107 0.707107 -0.996827 0.0795964 -64.6809 36.7758)" stroke="rgba(255, 255, 255, 0.5)" stroke-width="2"/>
<line y1="-1" x2="340" y2="-1" transform="matrix(0.707107 0.707107 -0.996827 0.0795964 -31.2775 0.130524)" stroke="rgba(255, 255, 255, 0.5)" stroke-width="2"/>
<line y1="-1" x2="375" y2="-1" transform="matrix(0.707107 0.707107 -0.996827 0.0795964 -98.3534 75.2586)" stroke="rgba(255, 255, 255, 0.5)" stroke-width="2"/>
<line y1="-1" x2="375" y2="-1" transform="matrix(0.707107 0.707107 -0.996827 0.0795964 -126.353 105)" stroke="rgba(255, 255, 255, 0.5)" stroke-width="2"/>
<line y1="-1" x2="340" y2="-1" transform="matrix(0.707107 0.707107 -0.996827 0.0795964 -14.6504 -18.8718)" stroke="rgba(255, 255, 255, 0.5)" stroke-width="2"/>
<line y1="-1" x2="340" y2="-1" transform="matrix(0.707107 0.707107 -0.996827 0.0795964 4.75073 -68.8718)" stroke="rgba(255, 255, 255, 0.5)" stroke-width="2"/>
<line y1="-1" x2="375" y2="-1" transform="matrix(0.707107 0.707107 -0.996827 0.0795964 -81.5171 56.0172)" stroke="rgba(255, 255, 255, 0.5)" stroke-width="2"/>
<line y1="-1" x2="372" y2="-1" transform="matrix(0.707107 0.707107 -0.996827 0.0795964 -47.9047 19.1328)" stroke="rgba(255, 255, 255, 0.5)" stroke-width="2"/>
<line y1="-1" x2="375" y2="-1" transform="matrix(0.707107 0.707107 -0.996827 0.0795964 -115.19 94.5)" stroke="rgba(255, 255, 255, 0.5)" stroke-width="2"/>
<line y1="-1" x2="375" y2="-1" transform="matrix(0.707107 0.707107 -0.996827 0.0795964 -143.19 124.241)" stroke="rgba(255, 255, 255, 0.5)" stroke-width="2"/>
</svg>
